<svg xmlns="http://www.w3.org/2000/svg" viewBox="0 0 500 500" aria-hidden="true" focusable="false">
  <path d="M269.6 82.5c-5.9 5.9-5.9 15.6 0 21.5l142.9 129.8H46.8c-8.6 0-15.6 7-15.6 15.6s7 15.6 15.6 15.6h365.6L269.6 394.9c-5.9 5.9-5.9 15.6 0 21.5 6 5.9 15.6 5.9 21.5 0L461 262c.3-.2.4-.5.6-.7.5-.4 1.3-.2 1.7-.7.6-.6.4-1.5.9-2.1 1.8-2.2 3-4.8 3.2-7.8 0-.3.3-.6.2-1v-.2-.2c0-.2-.1-.4-.1-.6-.2-3.7-1.6-7-3.9-9.5-.2-.2-.1-.6-.3-.8-.2-.2-.5-.1-.8-.3-.2-.2-.5-.1-.7-.3L291.1 82.5c-6-5.9-15.6-5.9-21.5 0z"/>
</svg>