<svg xmlns="http://www.w3.org/2000/svg" viewBox="0 0 473 108">
    <title>Võ-Viêtnam - Sơn Long Quyền Thuật - Salle de Genève</title>
    <g id="text_-_vectorized" data-name="text - vectorized">
        <path d="M149.94 46.75L138 9.5h9.23l4.54 15.75c1.27 4.43 2.43 8.68 3.32 13.32h.16c.94-4.47 2.1-8.89 3.38-13.15l4.75-15.92h9l-12.59 37.25zM211.6 27.74c0 12.22-7.41 19.62-18.3 19.62-11.06 0-17.53-8.34-17.53-19 0-11.16 7.13-19.5 18.13-19.5 11.45.04 17.7 8.6 17.7 18.88zm-26.93.5c0 7.29 3.43 12.43 9.07 12.43s9-5.41 9-12.65c0-6.69-3.21-12.44-9-12.44s-9.07 5.42-9.07 12.66zm1.27-21c-.11-4.65 1.6-7 4.26-7a6.49 6.49 0 013.54 1.1 5.77 5.77 0 002.43 1.05c.94 0 1.33-.55 1.49-2.37h3.82c.11 5-1.49 6.91-4.37 6.91a7 7 0 01-3.59-1.06 6.07 6.07 0 00-2.38-1c-.72 0-1.22.83-1.33 2.38zM231.89 29.4V35h-14.48v-5.6zM246.27 46.75L234.33 9.5h9.23l4.54 15.75c1.27 4.43 2.43 8.68 3.31 13.32h.17c.94-4.47 2.1-8.89 3.37-13.15l4.76-15.92h9l-12.6 37.25zM282.71 9.5v37.25h-8.46V9.5zM313.79 31h-13.72v8.84h15.32v6.91h-23.78V9.5h23v6.91h-14.54v7.74h13.72zM306.54.72l5.59 6.79h-5.92l-2.76-3.42h-.11l-2.77 3.42h-5.86l5.53-6.79zM330.21 16.58h-10V9.5h28.64v7.08h-10.18v30.17h-8.46zM354.93 46.75V9.5h9.84l7.74 13.65a107.37 107.37 0 016.08 12.77h.17a139.3 139.3 0 01-.76-15.59V9.5h7.74v37.25h-8.84l-8-14.37a139.61 139.61 0 01-6.47-13.15l-.16.06c.22 4.91.33 10.16.33 16.24v11.22zM403.37 37.19l-2.66 9.56H392L403.37 9.5h11.06L426 46.75h-9.06L414 37.19zm9.45-6.3L410.5 23c-.66-2.21-1.33-5-1.88-7.19h-.11c-.55 2.21-1.11 5-1.71 7.19l-2.22 7.9zM464.08 32.49c-.16-4.47-.33-9.89-.33-15.3h-.16c-1.17 4.75-2.71 10-4.15 14.42l-4.54 14.54h-6.58l-4-14.37c-1.21-4.43-2.49-9.73-3.37-14.59h-.11c-.22 5-.39 10.77-.67 15.41l-.66 14.15h-7.8l2.4-37.25h11.23L449 21.94c1.16 4.25 2.32 9 3.15 13.32h.16c1.06-4.31 2.33-9.23 3.54-13.38l4-12.38h11l2.05 37.25h-8.24z" class="cls-1"/>
        <g opacity=".75">
        <path d="M138.65 103.93a8.73 8.73 0 003.93 1c1.63 0 2.49-.7 2.49-1.75s-.74-1.59-2.63-2.28c-2.6-.94-4.3-2.43-4.3-4.78 0-2.76 2.23-4.87 5.93-4.87a9.38 9.38 0 014 .81l-.79 3a7.19 7.19 0 00-3.28-.77c-1.54 0-2.28.72-2.28 1.56 0 1 .88 1.49 2.91 2.28 2.76 1.06 4.07 2.54 4.07 4.82 0 2.72-2 5-6.33 5a10 10 0 01-4.44-1zM165.51 103.55l-1.12 4.15h-3.67l4.79-16.18h4.65L175 107.7h-3.81l-1.19-4.15zm4-2.74l-1-3.43c-.28-1-.56-2.16-.79-3.12h-.05c-.23 1-.46 2.18-.72 3.12l-.93 3.43zM187.88 91.52h3.56v13.11h6.23v3.07h-9.79zM210.53 91.52h3.55v13.11h6.24v3.07h-9.79zM242.5 100.86h-5.77v3.84h6.44v3h-10V91.52h9.68v3h-6.12v3.36h5.77zM271.82 91.74a30.13 30.13 0 014.79-.34c3 0 4.91.56 6.42 1.73a7.25 7.25 0 012.65 6.1 8.34 8.34 0 01-2.6 6.55c-1.66 1.42-4.17 2.09-7.24 2.09a29.74 29.74 0 01-4-.24zm3.56 13.2a6.47 6.47 0 001.23.07c3.21 0 5.3-1.8 5.3-5.66 0-3.36-1.88-5.14-4.93-5.14a7.28 7.28 0 00-1.6.14zM308.1 100.86h-5.77v3.84h6.44v3h-10V91.52h9.67v3h-6.11v3.36h5.77zM350.51 107a17.14 17.14 0 01-5.23.91c-2.86 0-4.93-.75-6.38-2.19a7.93 7.93 0 01-2.2-5.88c0-5.37 3.81-8.45 8.95-8.45a10.41 10.41 0 014.35.8l-.75 2.93a8.35 8.35 0 00-3.65-.7c-3 0-5.18 1.73-5.18 5.23 0 3.34 2 5.31 4.93 5.31a4.69 4.69 0 001.74-.24v-3.39h-2.42v-2.89h5.84zM373.37 100.86h-5.77v3.84h6.4v3h-10V91.52h9.67v3h-6.07v3.36h5.77zM387.22 107.7V91.52h4.14l3.26 5.93a48.1 48.1 0 012.56 5.55h.07a60.37 60.37 0 01-.3-6.77v-4.71h3.25v16.18h-3.72l-3.35-6.24a62.56 62.56 0 01-2.72-5.71h-.07c.09 2.14.14 4.42.14 7.06v4.87zM423.36 100.86h-5.77v3.84H424v3h-10V91.52h9.67v3h-6.12v3.36h5.77zm-4.58-13.15l2 2.9h-2.84l-2.86-2.9zM441.08 107.7l-5-16.18h3.88l1.91 6.84c.53 1.92 1 3.77 1.39 5.79h.07c.4-2 .88-3.87 1.42-5.71l2-6.92h3.77l-5.28 16.18zM472.26 100.86h-5.77v3.84h6.45v3h-10V91.52h9.67v3h-6.12v3.36h5.77z" class="cls-1"/>
        </g>
        <path d="M139 73.25a12.09 12.09 0 004.91 1.13c2 0 3.11-.78 3.11-2s-.93-1.78-3.29-2.57c-3.25-1-5.37-2.72-5.37-5.37 0-3.1 2.79-5.48 7.41-5.48a12.87 12.87 0 015 .92l-1 3.32a10 10 0 00-4.1-.86c-1.92 0-2.85.81-2.85 1.75 0 1.16 1.11 1.68 3.63 2.57 3.46 1.18 5.09 2.86 5.09 5.42 0 3-2.53 5.67-7.9 5.67a13.68 13.68 0 01-5.55-1.13zM173.6 56.92a5.71 5.71 0 01.69 2.75 2.8 2.8 0 01-3 3 9.73 9.73 0 011.63 5.56c0 6-3.89 9.58-9.62 9.58s-9.3-4.1-9.3-9.29a9.11 9.11 0 019.57-9.52 12.22 12.22 0 013.58.54 11.86 11.86 0 002.87.95 1 1 0 001.08-1.08 3.81 3.81 0 00-.64-2zm-5.41 11.41c0-3.26-1.68-6.07-4.73-6.07s-4.74 2.78-4.74 6.15 1.78 6.1 4.77 6.1 4.7-2.64 4.7-6.18zM176.21 77.48V59.29h5.17l4.07 6.71a52.29 52.29 0 013.2 6.23h.08a63.09 63.09 0 01-.37-7.61v-5.33h4.06v18.19h-4.65l-4.18-7a67.63 67.63 0 01-3.4-6.43h-.09c.12 2.4.18 5 .18 7.93v5.48zM203 59.29h4.44V74h7.79v3.45H203zM235.1 68.2c0 6-3.89 9.58-9.62 9.58s-9.21-4.07-9.21-9.26A9.11 9.11 0 01225.8 59c6.02 0 9.3 4.18 9.3 9.2zm-14.1.24c0 3.56 1.8 6.07 4.77 6.07s4.7-2.64 4.7-6.18c0-3.26-1.68-6.07-4.73-6.07S221 64.91 221 68.44zM238.44 77.48V59.29h5.17l4.07 6.71a52.29 52.29 0 013.2 6.23h.12a63 63 0 01-.38-7.61v-5.33h4.07v18.19H250l-4.18-7a67.63 67.63 0 01-3.4-6.43h-.09c.12 2.4.18 5 .18 7.93v5.48zM275.28 76.65a23.55 23.55 0 01-6.54 1c-3.57 0-6.16-.83-8-2.45a8.49 8.49 0 01-2.74-6.6c0-6 4.77-9.5 11.19-9.5a14.45 14.45 0 015.43.89l-.93 3.3a11.42 11.42 0 00-4.56-.79c-3.69 0-6.48 2-6.48 5.89 0 3.75 2.53 6 6.16 6a6.4 6.4 0 002.18-.27v-3.8h-3v-3.26h7.29zM302.21 80.62a71.44 71.44 0 01-7.73-2.57 4.9 4.9 0 00-1.36-.27 8.74 8.74 0 01-8.55-9.23c0-5.45 3.72-9.56 9.56-9.56 6 0 9.27 4.21 9.27 9.18 0 4.13-2.06 7-4.65 8.13v.1c1.51.41 3.2.73 4.74 1zM294 74.51c3 0 4.7-2.61 4.7-6.18 0-3.32-1.68-6.07-4.7-6.07s-4.77 2.75-4.77 6.15 1.77 6.1 4.74 6.1zM311.16 59.29v10.47c0 3.14 1.28 4.73 3.54 4.73s3.6-1.51 3.6-4.73V59.29h4.42v10.2c0 5.62-3.05 8.29-8.16 8.29-4.94 0-7.85-2.54-7.85-8.34V59.29zM331.52 77.48V70l-6.19-10.74h5.06l2 4.37c.61 1.33 1 2.3 1.51 3.49h.1c.44-1.14.9-2.19 1.48-3.49l2-4.37h5l-6.54 10.64v7.58zM356.07 69.79h-7.2v4.32h8v3.37h-12.45V59.29h12.09v3.38h-7.64v3.77h7.2zM352 55l2.62 3.32h-2.82l-1.28-1.7h-.06l-1.27 1.7h-2.85L349 55zm3.2-1.84l1.92 3.05h-2.33l-3.4-3.05zM360.37 77.48V59.29h5.17l4.07 6.71a50.78 50.78 0 013.19 6.23h.09a63 63 0 01-.38-7.61v-5.33h4.07v18.19h-4.65l-4.18-7a67.63 67.63 0 01-3.4-6.43h-.09c.12 2.4.18 5 .18 7.93v5.48zM389.8 62.75h-5.26v-3.46h15v3.46h-5.34v14.73h-4.4zM406.82 59.29v7h7.3v-7h4.41v18.19h-4.41v-7.61h-7.3v7.61h-4.44V59.29zM427.25 59.29v10.47c0 3.14 1.28 4.73 3.54 4.73s3.6-1.51 3.6-4.73V59.29h4.42v10.2c0 5.62-3.05 8.29-8.16 8.29-4.94 0-7.85-2.54-7.85-8.34V59.29zM446.77 72.81l-1.39 4.67h-4.59l6-18.19h5.81l6.07 18.19h-4.76l-1.51-4.67zM451.42 55l2.93 3.32h-3.1l-1.46-1.67h-.06l-1.45 1.67h-3.08l2.91-3.32zm.32 14.74l-1.22-3.86c-.35-1.08-.7-2.43-1-3.51h-.06c-.29 1.08-.58 2.45-.9 3.51l-1.16 3.86zm-2.21 13.6a1.86 1.86 0 110-3.7 1.88 1.88 0 011.95 1.87 1.9 1.9 0 01-1.95 1.83zM463.07 62.75h-5.26v-3.46h15.05v3.46h-5.35v14.73h-4.44z" class="cls-1"/>
    </g>
    <g id="Image">
        <path d="M13.56 51.7a13.22 13.22 0 01-3.07 1.49c-.53.05-.77.1-.82-.35s.47-2.54-.67-4.23a6.34 6.34 0 00-3.18-2.52c-.53-.16-.82-.2-.58-.42a9.51 9.51 0 014.72.39 7.29 7.29 0 013.31 3.17c.6 1.03.66 2.17.29 2.47zM7.19 57.93c.24.59-.28.76-1 1.22s-1.37 1-1.69.9-.69-.32-.69-1.28a4.14 4.14 0 00-.69-2.88 4.8 4.8 0 00-2.44-1.64c-.66-.06-.78-.33-.61-.43a5.24 5.24 0 012.71-.45 4.65 4.65 0 013.07 1.91 8.61 8.61 0 011.34 2.65zM7.41 59.62c-.53.05-1.16.61-1.56.82s-1.59.53-1.59 1a3.56 3.56 0 001 2.09c.5.35 1.51.19 1.8.32s.35.42.13.71-1.06 1.12-1 1.78.4 2 1.22 2 1.43-.6 1.7-.42.08.72-.19 1A11 11 0 007.49 75c.27 3 1.35 6 3.18 6.89s3.95.58 4.3 1.53.26 3.5.6 4.24a2.13 2.13 0 001.62 1.43c.8.08 2.28-.18 2.47-.61a21.42 21.42 0 00.53-4.1c0-1.09-.51-1.54-.3-2.09s1-.88 1-1.8-.64-1.17-.53-2a1.92 1.92 0 011.46-1.74c1-.35 1.59-.56 1.72-1.51a20.25 20.25 0 01.69-4.82c.61-1.59 1.48-2.78 1.4-3.76a2.55 2.55 0 00-1-1.86 2.56 2.56 0 01-1-2 3 3 0 01.53-2.25 1.67 1.67 0 00.11-1.55 3.84 3.84 0 01-.88-1.88 5.41 5.41 0 000-1.85c-.19-.83-.56-1.59-1.22-1.78a3.8 3.8 0 00-2.05.07c-.75.18-2.27.7-2.51 1.63a4.5 4.5 0 00.08 3.12c.5.77 1.19 1.4 1.75 1.27s1.43-.69 1.67-.47a.58.58 0 010 .82c-.21.29-2 1.69-1.86 3.25s1.22 2.6 1 3.37-1.27 1.74-2.1 2.7-1.65 1.24-1.73 2.14.08 1.46-.2 1.57-1.88-2.89-2.94-3.85-1.5-1.11-1.6-1.57.29-1.09.16-1.77-1.43-1.25-1.65-2 0-1.62-.23-2-1.06-.34-1.44-1-.58-1.2-1.11-1.15z" class="cls-1"/>
        <path d="M16.08 69.9c-.24 0-.82-.48-1.25-.93s-2-1.4-2.06-2 .5-1.35.84-2.06-.18-1.64.14-2.12 1.29-1.06 1.16-1.4-.4-.56-.58-.4a5.44 5.44 0 01-1.75 1 5.4 5.4 0 01-2.28-1.75c-.45-.66-1.06-1.93-.53-2.51a16.26 16.26 0 011.54-1.22.28.28 0 00-.21-.48c-.32 0-1.3.14-1.41 0a1.28 1.28 0 01.48-1.54 10.93 10.93 0 013.26-1.37c.85-.14 1.08.26 1.53 1.88s1.17 2.27 1.17 2.67-.08 1.59.37 1.91a5.32 5.32 0 011.88 2.62 4.58 4.58 0 01-.77 3.31c-.79 1.24-1.27 1.49-1.16 2.49s.16 1.49-.05 1.67-.32.23-.32.23zM18.94 52.71c-.58-.11-.45-1.59-.48-2.38a3.73 3.73 0 00-1.75-2.89 4.74 4.74 0 00-2.09-.74c-.42 0-.74-.24-.5-.4a7.44 7.44 0 013.44-.4 5.4 5.4 0 014 3.18c.67 1.78.72 2.6.38 3.13-.16.24-.68.12-1.63.32a8.74 8.74 0 01-1.37.18zM27 53.66c-.1.19-.24.29-.79.06a4 4 0 01-2.07-2.44 7.87 7.87 0 01.64-3.2c.23-.82-.06-1.7-.56-1.86a9.32 9.32 0 01-3.18-1.51 2.28 2.28 0 01-.58-2.25c.1-.47-.45-1.19-1.17-1.37a7.87 7.87 0 00-1.7-.22c-.42 0-.6-.42-.39-.53a5 5 0 012.8-.09c.85.4 1.63 1 1.56 2.08-.05.85 0 1.62.62 1.93.35.18 2.72.77 3.25 1.59a3.69 3.69 0 01.29 2.94c-.29.9-1 1.78-.56 2.44a7 7 0 001.43 1.51c.48.39.43.37.45.58a.54.54 0 01-.04.34zM30.65 63.2c0 1 0 1.66-.7 1.63s-1.5-.41-2-.39a1.27 1.27 0 00-1.22 1.35c-.08 1.43.16 2.17-.08 2.62s-.46.89-.39 1.1a.57.57 0 00.78.25c.3-.11.83-.59.73-2.45 0-.78-.1-1.48.22-1.69s1.16.32 1.92.3a1.63 1.63 0 001.72-1.66c.11-1.22 0-2.25-.48-2.24s-.5.52-.5 1.18zM30.63 72.73a6.05 6.05 0 01-.93-1.17.36.36 0 00-.66 0 4.54 4.54 0 00-.46 3.05 3.87 3.87 0 001.13 2.32 1.69 1.69 0 001.15.51c.2-.1-.46-1.41-.22-2.16s.73-.8 1-1 .42-.51.1-.7-1.11-.85-1.11-.85zM35.05 74.87a10.86 10.86 0 01-1.67-.55c-.31-.13-.59.42-.69.77a4 4 0 00.22 2.7 9.21 9.21 0 002.55 2 8 8 0 002.57.8c.19-.1.17-.2-.2-.49a3.26 3.26 0 01-1.58-1.86 3 3 0 010-2.1c.14-.41.66-1 .5-1s-.75-.04-1.7-.27zM40.75 75.52c-2-.06-2.81-.31-2.82-.07 0 .42-.32 2.14 2.7 4.66a12.52 12.52 0 007.51 3c1.19 0 2-.18 2.18-.45s-.21-.32-.48-.34a5.19 5.19 0 01-3.76-1.91c-1.38-1.77-1.78-2.48-2-3.41-.14-.63-.15-1.45-.27-1.46-.44-.05-3.06-.02-3.06-.02zM49.1 75.18c-1.55.23-3.58.16-3.55.36a11.23 11.23 0 003.31 4.21 16.18 16.18 0 006.7 2.17 9.4 9.4 0 003.23-.29c.32-.24.65-.39.18-.48a12.49 12.49 0 01-4.56-2 7 7 0 01-2-2.82c-.23-.91.05-1.53-.48-1.55a24.66 24.66 0 00-2.83.4zM57.38 73.14c-1.62.76-3.42 1-3.3 1.26a10.1 10.1 0 006 4.13 20.59 20.59 0 008.77-.16c1.27-.5 2.08-.82 2-1.2s-.67-.37-1.06-.35a11.32 11.32 0 01-6.09-1.75 11.77 11.77 0 01-2.7-2.3c-.31-.34-.69-1.19-1-1a29.22 29.22 0 01-2.62 1.37zM65.12 66.51c-.37.06-.81 1-1.57 2-.5.64-1.65 1.77-1.88 2s.55 1.07 1.39 1.63 6.15 3.48 11.42 3.45 13.44-2.8 15.27-4.1 2.67-1.85 2.7-2.17 0-.51-.27-.45A24 24 0 0182 70.77a46.15 46.15 0 01-11.75-1.88c-1.58-.57-4.58-2.47-5.13-2.38zM97.67 62.11c.27 0 .5.24.27.45S92.69 66 80.39 65.74s-15-.56-15-1.07c0-1.22-1.1-3-2.34-4.53a58.23 58.23 0 00-5-4.6c-.37-.34.08-.9.56-1.08a8 8 0 012.86-.11 186.32 186.32 0 0022.63-1.16c15.4-2 19.93-6 20.09-5.79s-.28.89-.46 1.09c-.42.48-5.5 5.39-16.85 7C73 57.53 71.33 57 70 57.13s-1.48 1.08-1.36 1.39c.24.64 3.22 2.45 10.51 3.46 6.55.9 8.9.82 11 .71s7.52-.58 7.52-.58z" class="cls-1"/>
        <path d="M80.09 58c-.62 0-4.28.14-4.73.14s-1.51.21-1.38.71.69 1.22 3.68 1.67 3.16.37 3.47 0a5 5 0 00.43-2.07c0-.45-.56-.52-1.47-.45zM84.94 57.69c-.94 0-1.63-.16-2 .4a5.65 5.65 0 00-.58 2.38c0 .5 1.44.78 2.31.81a2.1 2.1 0 002.48-1.6c.29-.69.19-1.65-.08-1.83a5.49 5.49 0 00-2.13-.16zM90.72 57.57c-1.24.09-2.09-.07-2.17.44s-.26 2-.39 2.41-.45.87-.19.92 3.24.1 4.3.1 1.5-.34 1.61-.59a7.43 7.43 0 00.24-3.08c-.08-.32-.21-.44-.82-.43-.23.01-1.3.14-2.58.23z" class="cls-1"/>
        <path d="M106.81 54.86c-.17-.27-1 .55-1.93 1a16.31 16.31 0 01-5.51 1.56c-1.75.14-3.9-.06-4 .15a18.23 18.23 0 00-.37 3.32c.3.26 1.41.1 2.24.06a6.44 6.44 0 013.15.34c.43.27.1.81-.34 1.25a16 16 0 01-4.67 2.67c-1.66.64-2.51.42-2.51 1a5.82 5.82 0 00.79 2.7 1.84 1.84 0 001.41.69c.37-.08.71-.59 1.14-.8s.66.21.9.53.32.72.87.82 2.84-.26 3.08.21a1.59 1.59 0 01.16 1.38c-.19.64-3.58 9.72-6.76 14.48s-6 8.58-9.65 11.71a98.36 98.36 0 01-12.21 8.84c-1 .6-2.36 1-2 1.16a5.14 5.14 0 002.34-.2c1-.27 2.76-1.17 4.46-1.59a16.29 16.29 0 015.77-.32c1.7.27 4.08.74 5.41.11s1.6-.9 1.59-1.06-.37.32-1.59-.27-2-1.65-1.45-2.87 2.08-.78 4.52-.83a7.82 7.82 0 005.57-2.6c.9-1.16.84-1.32.84-1.43a14.59 14.59 0 01-2.86 1A2.67 2.67 0 0192.48 96c-.21-1.06 1.11-2.81 4-3s5.78-1 7.37-2.65 2.12-2.52 2-2.67c-.23-.35-2.67 1.48-4.31 1.4a2.37 2.37 0 01-2.44-2c0-1 1-2.38 3.08-2.28s5.19.29 6.86-1.08a5 5 0 001.96-3.47c.11-.58.22-1.07 0-1.11s-1.42 1.87-3.34 2.22a2.47 2.47 0 01-2.65-2.22 3.63 3.63 0 012.33-3.39c1.49-.69 3.54-.78 4.83-1.46 1.46-.77 2.84-2.28 2.9-2.88 0-.42 0-.53-.36-.53a6.71 6.71 0 01-3.71-.85c-1.38-.93-4.9-5.11-4.93-8.74a19.39 19.39 0 01.59-5.08c.07-.69.34-1.09.15-1.35z" class="cls-1"/>
        <path d="M89.09 66.64c-.85 0-2.73.12-3 .54s-.5 1.47-.13 1.9 2.49.15 3.39-.16 2.33-.9 2.33-1.49.11-1-.42-1a19.67 19.67 0 00-2.17.21zM81.6 67c-.84 0-2.43-.23-2.59.08s-.37 1.7.27 2.12a6.87 6.87 0 003.07.48c1 0 2.5-.27 2.6-.9s.21-1.54-.16-1.75A17.84 17.84 0 0081.6 67zM74.74 66.86a16.63 16.63 0 00-2.74-.27c-.48.16-.74 1.06.74 1.64a12.5 12.5 0 003.71.79c1.06.11 1.17.06 1.22-.42s.33-1.54-.19-1.6a27.37 27.37 0 00-2.74-.14zM89.3 72.78c-1.06.48-3 1.17-3.08 2.17s.53 1.54 1.06 2.44 1 1.8 1.38 1.75a8.58 8.58 0 002.49-2.65 9.4 9.4 0 00.85-3.65c0-1-.37-1.38-.58-1.28s-1 .59-1.33.8a6.81 6.81 0 01-.79.42zM93.22 70.93c-.09.09-.16 1.91-.21 2.33s-.32 1.75 0 2.12.79.9 1.32.79 1-2.12 1.06-2.91.32-2.07-.16-2.28a2.79 2.79 0 00-1.27-.1c-.26 0-.65-.04-.74.05zM96.66 71.3c-.07.19-.21 1.7-.42 2.6s-.64 2-.16 2.17a3.18 3.18 0 002.55-1.17 4.07 4.07 0 00.42-2.7 2 2 0 00-1.48-1.2c-.27 0-.83.11-.91.3zM92.53 76.54a10.76 10.76 0 00-1.48 1.65c-.37.42-1.33 1.27-1.17 1.69a1.58 1.58 0 001.06 1c.53.1 2 .16 2.44-.64s.32-1.59.58-2 0-1.33-.26-1.33-.93-.42-1.17-.37zM84.58 76.33a13.49 13.49 0 00-2.28 1.11c-.58.27-1.53.59-1.32 1.54a13.53 13.53 0 001.32 2.86c.53 1.06 1.59 2.17 2 2S86 82 86.7 81.52A2.23 2.23 0 0087.76 80a11.5 11.5 0 00-1.38-1.86 7.34 7.34 0 00-1.8-1.81zM95.45 76.91a7.26 7.26 0 00-.45 1.86c-.06.37-.53 1.32-.27 1.48s1 .69 1.28.48a13.87 13.87 0 00.99-2.12c.31-.53.74-1.33.31-1.59a1.85 1.85 0 00-1.31-.26c-.24.1-.4.03-.55.15zM89.14 80.67a9.43 9.43 0 00-1.54 1.59c-.26.33-1.75 2-1.69 2.39A2.77 2.77 0 0087.34 86c.37.06 1.85-1.27 2.22-1.85s1-1.64.85-2.17-1.07-1.35-1.27-1.31zM91.42 82c-.13.09-1.06 2.06-.85 2.7s.64 1.69 1.27 1.74 1.43-.58 2.12-1.58a4.36 4.36 0 00.74-2.76c0-.63-.16-1-.63-.85s-1.22.38-1.59.48-.8.01-1.06.27zM89.62 85.76c-.19 0-1.06 1.06-1.38 1.16s-1.06-.1-1.17.27-.9 1.48-.48 2.12 1.28.9 1.59 1.16 1.06.9 1.28.69a21.23 21.23 0 001.4-2.16 2.13 2.13 0 00.08-1.6 3.36 3.36 0 00-1.32-1.64zM84.53 85.28a7.23 7.23 0 00-2.07 1.33c-.42.31-1.8.84-1.8 1.16a5.56 5.56 0 001.16 1.85c.38.38 2.18 1.54 2.6 1.12A8.68 8.68 0 0086 87.35a2.14 2.14 0 00-.79-1.8 2 2 0 00-.68-.27zM82.51 84.65c-.05.32-.84.79-1.37 1.16a16.89 16.89 0 01-2.84 1.59c-.26 0-1.62-1.79-2.3-3.06a15.87 15.87 0 01-1.59-3.4c-.06-.58.31-1.11 1.11-1.38a13.16 13.16 0 013.34-.56c.69.06 1.11.8 1.75 2.07a14.49 14.49 0 001.24 2.33c.32.4.72.93.66 1.25zM76.84 88.3c0 .35-1 .64-2 1.27a12.16 12.16 0 01-1.95 1.37c-.47 0-1.69-1.84-2.34-2.71-.84-1.11-2.17-3.13-2.6-3.71s-.87-1.37-.63-1.78c.37-.63 2-1.32 2.65-1.69a2.29 2.29 0 012-.32c.64.26.65 1.07 1.39 2.18s2 3.25 2.43 3.74 1.11 1.23 1.05 1.65zM79 88.51c-.14 0-2.44 1-2.54 1.65a4.25 4.25 0 00.63 2.54c.48.74 1.75 1.9 3 1.59a7.34 7.34 0 002.38-1.49c.53-.26.85-.47.53-.85s-1.85-1.21-2.38-1.79A11.66 11.66 0 0079 88.51zM86.12 90.58c-.27 0-1.59 1.22-1.59 1.9a4.94 4.94 0 00.47 1.75c.16.43.48 1.11.69 1s.85-1.06 1.22-1.43 1.43-.8 1.48-1.38a1.61 1.61 0 00-.9-1.43 2.41 2.41 0 00-1.37-.41zM83.36 93.49c-.24.16-1 .9-1.32 1.11s-1.17.85-1.22 1.38-.37 3-.11 3 2.65-.69 3.13-1.54a3.21 3.21 0 00.48-2.59c-.32-.67-.8-1.46-.96-1.36zM79.65 96.56a1.56 1.56 0 00-.79-1.43c-.43-.16-1.27-.21-1.27.37s-.11 2.17-.16 2.86-.32 2.33 0 2.65a1.09 1.09 0 001.69 0c.64-.74.48-1.91.53-2.65s0-1.8 0-1.8zM72.55 100.06c-.77-.15-1.64-1-2.6-.85s-2 1.22-1.06 2.17 1.91 2.12 1.54 2.6-2.07 1.59-2.17 1.8.58 1.43 1.16 1.38 3.39-2.28 4.45-3 2.6-1.54 2.6-2.33-.37-2-1.59-1.91a8.17 8.17 0 01-2.33.14zM73.19 99a3 3 0 01-2.34-1.91 7 7 0 011.49-3.71c1-1.16 2-2.54 2.44-2.33s.42 1.07.74 1.65a4.06 4.06 0 011 2.38c0 1.11-.15 3.49-1.32 3.76a6.61 6.61 0 01-2.01.16zM71.38 92c0 .55-2.22 3.22-2.49 5.28-.14 1.08-1.27 2.86-1.8 2.6s-5.67-4.66-7.37-7.58c-1.21-2.09-2.91-6-2.65-7s2.81-1.8 3.71-2.17a6.9 6.9 0 014-.21c1 .42 3.24 4.6 4.19 5.82s1.8 2.28 2 2.6.43.42.41.66z" class="cls-1"/>
        <path d="M69.1 103.5c-.1.42-.89 1.07-1.33 1.54-.61.65-1.74 1.64-2.9 1.37a26.67 26.67 0 01-8.8-4.71c-3.77-3-7.79-8.21-7.74-9.75s1.48-3.12 2.12-3.86 2.7-2.54 3.44-2.38 1.22 0 2.55 3.33a33.42 33.42 0 007.31 10c1.86 1.48 3.76 3 4.24 3.34s1.22.7 1.11 1.12zM60.15 106.1c-.21.5-7.21-.41-10-2.18s-4.66-4.13-4.55-4.44.74-.48 1.9-.69a5 5 0 013.4.26c1 .58 2.49 2.65 4.24 3.82s5.14 2.92 5.01 3.23zM46.5 103c-.16.2-2.89-1-3.74-1.42s-1.75-.74-1.59-1a2.82 2.82 0 011.65-.85c.9-.21 1.19-.18 1.27-.11a5.49 5.49 0 00.74 1.51c.48.54 1.83 1.68 1.67 1.87zM49 96.3c-.11.31-2.7 1.22-3.76 1.64S43 99 42.55 98.73s-2.49-2.22-2.49-2.73a10.42 10.42 0 00-.06-2.56c-.21-.69-1.38-1.49-1.12-1.8s1.54-.37 2.55-.16 1.43 1.27 2.38 1.9a1.72 1.72 0 002.18 0c.58-.37 1.06-.74 1.53-.21a13.44 13.44 0 011.12 2.07c.27.42.48.63.36 1.06zM40.33 100a3.17 3.17 0 01-2.33-.48c-1.15-.64-2.77-1.74-3-2.32s.11-1 .69-1 2.23-.32 3 .21a6.21 6.21 0 012 2.49c-.05.52.06.84-.36 1.1zM38.89 94.13a3 3 0 01-2.54.79 5.12 5.12 0 01-2.81-2.44 9.14 9.14 0 01-.42-2c-.16-.47-1.17-1.8-.69-1.9a5 5 0 013 .58c.74.58.84 1.22 1.32 1.48A2.52 2.52 0 0137.83 92a15 15 0 00.85 1.43 3.32 3.32 0 01.21.7zM33.7 96a12.72 12.72 0 01-3.7-1.45c-1.06-.69-2-1.48-1.85-1.75s.58-.47 1.43-.53 2.44-.26 2.65.11a20 20 0 001.06 2.17c.42.58.9 1.06.74 1.27a.5.5 0 01-.33.18zM18.28 89.94c-.74 0-1.94-.33-1.83.52a12.88 12.88 0 01-.24 3.93 6 6 0 01-1.71 1.75c-.37.1-.14.25.12.37a4 4 0 002.9-.57 8.45 8.45 0 002.24-4.67c0-1.33-.37-1.43-.69-1.38a6.39 6.39 0 01-.79.05zM26.76 91.64a4.12 4.12 0 01-2.44-1 2.1 2.1 0 01-.95-1.8 1.6 1.6 0 011.63-.59 4.78 4.78 0 011.91 1.9 4.13 4.13 0 01.37 1c.01.27-.52.49-.52.49zM21.93 88.72c-.37-.1-1.21-.84-1.21-1.16a8.7 8.7 0 01.28-1.33c.06-.21.53-.47.53-.21a7 7 0 00.69 1.86c.27.42.27.79.06.9a.35.35 0 01-.35-.06zM24.69 87.19c-.53-.11-1.27-.06-1.54-.32s-1.06-1.43-.95-1.87.53-.37 1.22-.27 1.75-.37 2.22.16a2.64 2.64 0 01.43 1.75c0 .32.05.53-.27.63a2.92 2.92 0 01-1.11-.08zM30.47 91.27c-.59 0-1.33.26-1.54.21a6 6 0 01-1.48-2.17 6.42 6.42 0 01-.37-2.39c0-.53-.27-1.11.31-1.16s1.81.95 2.44 1.48a6.91 6.91 0 011.59 2.12c.37.74 1 1.59.43 1.75a6 6 0 01-1.38.16zM23.52 83.75a6 6 0 01-1.59-.37 3.41 3.41 0 01.07-1.75c.21-.48.32-.85.74-.48s1.22 1.27 1.43 1.48.53.9.27 1a3.47 3.47 0 01-.92.12zM46.57 91.84A19.58 19.58 0 0142 90.72a76 76 0 01-15.92-8.19c-3.87-2.7-4.18-3.55-4-3.76s1.75.37 2.43.32 5-.11 5.78-.16a5.8 5.8 0 012.65.63c.74.37 1.86 1.15 1.75 1.38s-1.8-.32-2.76 0-1.43 1.11-.74 1.43a11.19 11.19 0 004.61 0 4.42 4.42 0 013.16-.2c1.36.44 2.46 1.57 2.3 1.8s-1.69-.37-2.47-.11c-1.3.43-.48 1.55.21 1.71a10.15 10.15 0 003.06-.13 13.74 13.74 0 014.77.16c1.43.43 2.59 1.55 2.49 1.75s-2-.05-3.14.11-2.38 1.37-1.37 2.22a25.29 25.29 0 002.34 1.48c.15.21-.09.64-.58.68zM74.27 38.41c.14-.22 3.12 1.31 3.24 3.34s-.06 4.92-5.94 8.26-13 3.23-15.34 3c-2.87-.26-9.39-1.72-11.69-3.38-2-1.41-1.09-3.27-.21-4.22s1.61-1.11 3.89-1c2.54.12 7.13 2.09 10.71 3.21a19.63 19.63 0 008.9.67c1.91-.36 7.91-2.37 7.91-6.16 0-3.08-1.6-3.49-1.47-3.72z" class="cls-1"/>
        <path d="M62.74 37.85c-.17.09.4.92.28 2.19a8.09 8.09 0 01-2.5 4.41c-1 .85-2.35 1.31-2.23 1.51a5.1 5.1 0 002.36 1c1.51.4 3.09.68 3.41.4a6.68 6.68 0 001-4c.02-2.96-2.06-5.64-2.32-5.51zM81.35 42.26c-.23.14.58 1.26.63 2.3.06 1.39-1.86 3.95-6.42 5.82-4.37 1.79-5.37 2.18-5.37 2.18s4.6-.13 8-.41 4.28-.3 4.64-.66a7.81 7.81 0 001.4-5c-.3-2.16-2.57-4.41-2.88-4.23zM84.82 51.41c-.19-.12.1-1.13.82-1.56s5.49-2 6.16-3.85.11-3.23.28-3.38 2.31 2.06 2.27 4.33-.47 2.68-1.66 3-7.45 1.74-7.87 1.46zM58 57.34a17.11 17.11 0 00-7.87-3.81c-2.7-.56-3.63-1-4.43-1.69a5.73 5.73 0 00-3.63-1.38c-1.43 0-2.22.34-2.49 1.08s0 2.1-.21 2.6-.13.74-1.88.79-3-1.11-3.92-2.43-1.67-1.83-2.94-1.64a2.81 2.81 0 00-2.1 2.88 2.69 2.69 0 001.27 1.78c.32.21.52.33.45.61s-.29.21-.84.26-1.12-.16-1.59.16-.85 1.3-.48 2.75a3.15 3.15 0 002.91 2.15 14.49 14.49 0 001.91-.45c.43 0 .56 1 .85 1.64s1.17 1.39 1.33 1.3-.16-.74-.27-1.35a2.1 2.1 0 01.19-1.19 5.2 5.2 0 002.7-.24 4.92 4.92 0 001.92-2.32 6.77 6.77 0 011.58.86 5.41 5.41 0 003.46 1.11 8.23 8.23 0 012.18 0c.66.22 1.09 1.51 1.33 3.47a2.28 2.28 0 01-2 2.78 2.64 2.64 0 01-1.92-.87 3.89 3.89 0 01-1-2.52c0-.68-.48-.84-.72-.58a3.79 3.79 0 00-.48 1.78 7.61 7.61 0 00.55 2.13c.11.29-.13.55-.45.69a3.42 3.42 0 01-2.09-.19 3.2 3.2 0 01-1.88-2.93c0-1.55.88-2.48.46-2.61s-2.28 1.37-2.74 2.25-.43 2-.64 2.2-.48.45-1.75.24-2.38 1.35-2.52 2.58 1.62 2.76 3.87 3.55 8.3 1.45 18.18-1.31 10.36-6.18 10.42-8-1.99-3.87-4.72-6.13zm-15.73-3.6c-1.11 0-1.55-.69-1.55-1.27s.52-.95 1.24-.95 1.7.54 1.7 1.31-.45.93-1.39.91zM30.27 48.42a4.46 4.46 0 01-2.74-3.3c-.16-1.55 1-2.14 1.59-3.93s8.5-20.26 8.82-21.13a1.76 1.76 0 011.63-1.23c.6 0 2.39 1.27 4.09 2s4.77 1.77 4.77 3.17-.47 8.7-.59 11.12.28 4.61.08 5.25-1.71 2.18-3 1.9-2.37-1.27-3.72-1.12-3.66 4-4.05 4.93-1 1.23-1.32 1.23-.67-.31-.51-1.31.79-4.41 2.18-6.16 4.42-3.89 4.93-6a7.61 7.61 0 00.24-3.84 1 1 0 00-1.63.28c-.4.83-1.27 4.41-2.26 4.76s-1.63 0-1.79.36-2.87 9.93-3.34 11.2a3.52 3.52 0 01-3.38 1.82z" class="cls-1"/>
        <path d="M51 38.49c-.36 0-.76-.75-.76-1.87s.16-12.67.44-14.53S62.11.91 62.67.4a2.58 2.58 0 012.82 0c.67.59 7.79 6.75 8 7a3.07 3.07 0 01.59 2c0 1.12-1 33.09-1 33.37s-.16.52-.32.52-4.17-.08-5.05-.08a2.15 2.15 0 01-1.82-1.75c0-.72.27-2.74.19-3.58s-2.26-3.53-2.42-4.29 0-15.17 0-15.69.48-1 .79-1 1.36 5.36 1.79 6.2.64.87.8.79a1.36 1.36 0 00.36-.87c0-.36.43-7.63.23-8s-.39-.47-.63-.47-2 .12-2.39-.32-1-2.5-1.35-2.94-1-.79-1.19-.71a1.09 1.09 0 00-.6 1c.08.51-.75 25.7-.83 26.1a2 2 0 01-2.23 1.35c-1.51-.12-1.87-.68-2-1.08s.48-14.53.44-14.93-.44-.64-.67-.48-1 .68-1.16 1.15-3.06 13.71-3.26 14.1-.18.74-.76.7zM79.08 35c-.28 0-.3.6-.67 1a1.94 1.94 0 01-1.91.32 2.57 2.57 0 01-1.08-2.19 86.25 86.25 0 010-8.94c.19-1 4.69-6 6-6.27s2.18 1.15 2.9 2.1a7.2 7.2 0 011.39 3.18c0 .83 1 16.6 1.07 17.12a.65.65 0 01-.55.75c-.2 0-2.15-1.58-2.27-2.46s-.36-8.86-.48-9.41-.75-1.23-.91-1.11-.52 7-.64 7.42-.67.44-1 .44-1.11-1.39-1.27-1.63-.34-.32-.58-.32z" class="cls-1"/>
    </g>
</svg>