<svg xmlns="http://www.w3.org/2000/svg" viewBox="0 0 566.9 566.9">
  <style>
    path {
        fill: #000000;
    }
    @media (prefers-color-scheme: dark) {
      path {
        fill: #ffffff;
      }
    }
  </style>
  <path d="M71 272c-1 2-12 7-15 8s-3 0-4-2 3-12-3-21a31 31 0 00-15-12c-3-1-4-1-3-2 1 0 14-2 23 2 8 4 13 10 16 15s3 11 1 12zM41 302c1 3-2 4-5 6l-8 5c-1 0-4-2-4-6s0-10-3-14-9-8-12-8-4-2-3-2a25 25 0 0113-3c6 1 11 4 15 10l7 12zM42 311c-3 0-6 3-8 4s-8 2-8 4 3 9 5 11 7 1 9 1 1 2 0 4-5 5-5 8 2 10 6 10 7-3 9-2 0 3-1 5-8 15-7 29 7 29 15 33 19 3 21 8 1 17 3 20 4 7 8 7 11-1 12-3l2-20c0-6-2-7-1-10s5-4 5-8-3-6-3-10 2-7 7-9 8-2 8-7 1-15 4-23 7-14 7-18a12 12 0 00-5-9c-2-2-4-4-5-10s1-9 2-11 2-6 1-7-4-6-4-9v-9c-1-4-3-8-6-9s-6-1-10 0-11 4-12 8-2 12 0 15 6 7 9 7 7-4 8-3v4c-1 1-10 8-9 16s6 13 5 16-6 9-10 13-8 6-9 11 1 7-1 7-9-14-14-18-7-6-8-8 2-5 1-9-7-6-8-9 0-8-1-10-5-1-7-5-3-6-5-5z" class="cls-1"/>
  <path d="M83 360l-6-4c-2-2-9-7-10-10s3-6 5-10-1-8 0-10 6-5 6-7-2-3-3-2-6 5-8 5-9-5-11-8-6-10-3-12l7-6a1 1 0 00-1-3h-6a6 6 0 012-7c4-3 12-6 16-7s5 1 7 9 6 11 6 13-1 8 2 9 8 8 9 13a22 22 0 01-4 16c-4 6-6 7-6 12s1 7 0 8l-2 1zM97 277c-3 0-2-7-2-11s-3-11-8-14-9-4-11-4-3-1-2-2 10-3 17-2 16 7 19 16 3 12 2 15l-8 1a38 38 0 01-7 1zM136 282h-4c-3-1-9-6-10-12s2-11 4-15-1-8-3-9-12-4-16-7a11 11 0 01-2-11c0-3-3-6-6-7a37 37 0 00-8-1c-2 0-3-2-2-3s9-2 14 0 7 5 7 10c0 4 0 8 3 9 2 1 13 4 16 8s3 10 1 14-5 9-3 12a32 32 0 007 7l3 3a3 3 0 01-1 2zM154 328c0 5 0 8-4 8l-9-2c-2 0-6 1-6 6v13c-1 2-3 4-2 5s2 2 4 2c1-1 4-3 3-12l1-8c2-2 6 1 9 1 5 0 8-2 9-8s0-11-3-11c-2 0-2 3-2 6zM154 374a31 31 0 01-5-6h-3c-1 3-3 9-2 15s4 10 5 11l6 3c1-1-2-7-1-11 1-3 3-3 5-5s2-2 0-3l-5-4zM175 384a51 51 0 01-8-2c-2-1-3 2-3 3s-2 10 1 13a45 45 0 0012 10l12 4c0-1 1-1-1-2s-5-3-7-9a15 15 0 010-10l2-5a76 76 0 01-8-2zM203 387h-14c0 2-2 10 13 23 15 12 31 14 36 14s10-1 11-2-1-2-3-2c-1 0-11 0-18-9s-8-12-9-16l-2-7-14-1zM243 386l-17 2c0 1 7 14 16 20s26 10 32 10 14 0 16-1 3-2 1-2c-4-1-17-5-22-10-5-4-9-10-10-14s0-7-2-7l-14 2zM283 376c-8 4-17 5-16 6 1 4 13 17 29 20s36 2 42-1 10-4 10-6-4-1-6-1c-9 0-21-4-29-9a59 59 0 01-13-11c-1-1-3-6-4-5l-13 7zM320 344c-2 0-4 5-7 9l-9 10c-1 1 2 5 6 8s30 17 55 17 65-14 74-20 13-9 13-11 0-2-1-2-23 11-49 10-46-6-57-10c-8-2-22-12-25-11zM477 323c2 0 3 1 2 2s-26 16-85 15-72-3-72-5c0-6-6-15-12-22s-22-20-24-22 1-4 3-5l14-1c7 0 67 0 109-5 74-10 96-29 97-28s-1 4-2 5c-2 2-27 26-82 34-67 9-75 7-81 8s-7 5-7 6c1 3 16 12 51 17 32 4 43 4 53 3l36-2z" class="cls-1"/>
  <path d="M393 303h-23c-2 0-8 1-7 4s3 6 18 8 15 2 17-1 2-8 2-10-3-2-7-1zM416 301c-5 0-8 0-9 2l-3 12c0 3 7 3 11 4 9 0 11-5 12-8s1-8 0-9l-11-1zM444 301c-6 0-10-1-11 2l-2 11c-1 1-2 5 0 5h20c5 0 8-1 8-2 2-5 2-14 1-15s-1-2-4-2l-12 1z" class="cls-1"/>
  <path d="M522 288c-1-2-5 2-10 4s-14 7-26 8l-20 1-2 16h11c4 0 12-1 16 2 2 1 0 4-2 6-4 3-13 9-23 13-8 3-12 2-12 4s2 11 4 14 5 3 7 3 3-3 5-4 3 1 5 3 1 3 4 4 14-2 15 1 1 3 0 6-17 47-32 70-29 42-47 57-45 35-59 43l-9 5 11-1c5-1 13-6 22-8s19-2 28-1 19 3 26 0 7-4 7-5-1 2-7-1-10-8-7-14 10-4 21-4 23-7 27-12l4-7s-7 4-13 4-13-4-14-9 6-13 20-14 27-5 35-13 10-12 10-13c-1-2-13 7-21 7-7-1-12-5-12-10s5-11 15-11 25 1 33-5 9-14 10-17 1-5-1-5-6 9-16 11c-4 0-13-4-13-11s5-13 12-16 17-4 23-7c7-4 14-11 14-14 0-2 0-3-2-3s-11 1-18-4c-6-5-23-25-23-42a95 95 0 012-25l2-6z" class="cls-1"/>
  <path d="M436 345c-4 0-13 0-14 2s-3 7-1 9 12 1 16 0 12-5 12-8 0-4-3-4l-10 1zM400 346c-4 0-12-1-13 1s-1 8 2 10 10 2 14 2 12-1 13-4 1-8-1-9h-15zM367 346l-13-2c-2 0-4 5 3 8s13 4 18 4 6 0 6-2 1-7-1-8h-13zM437 374c-5 3-15 6-15 11s3 7 5 11 5 9 7 9 9-8 12-13 4-13 4-18-2-6-3-6l-6 4a31 31 0 01-4 2zM456 365l-1 12c0 3-2 8 0 10s4 4 6 4 5-11 5-14 2-10 0-11l-6-1h-4zM473 367l-2 13c-1 5-4 9-1 10s10-2 12-6 3-9 2-13-6-5-7-5l-4 1zM453 392l-8 8c-2 2-6 6-5 9s2 4 5 4 9 1 12-3 1-7 3-9 0-7-2-7l-5-2zM414 391l-11 6c-3 2-7 3-6 7l6 14c2 5 8 10 10 9l11-11c3-3 6-5 6-7s-4-5-7-9l-9-9zM467 394l-3 9-1 7c1 0 5 4 6 3l5-11c1-3 4-6 2-7l-7-2-2 1zM436 412l-7 8c-1 2-9 10-8 12s5 6 7 6 9-6 10-9 5-8 4-10l-6-7zM447 418c0 1-5 10-4 14s3 8 6 8 7-3 11-8a21 21 0 003-13c0-3-1-5-3-4l-8 2-5 1zM439 437l-7 6c-1 1-5-1-6 1s-4 7-2 10 6 4 8 6 5 4 6 3l7-11a10 10 0 000-7c-1-4-6-8-6-8zM414 435c-3 0-8 4-10 6s-9 4-9 6 4 7 6 9 10 7 12 5 8-12 8-16a10 10 0 00-4-9 9 9 0 00-3-1zM404 432l-6 5-14 8c-1 0-8-9-11-15l-8-16c0-2 2-6 5-7l17-3c4 0 5 4 8 10l6 12c1 2 4 4 3 6zM377 449c0 2-5 3-10 6-2 2-7 7-9 7s-8-9-11-13l-13-18c-2-3-4-7-3-9 2-3 10-6 13-8s7-3 10-1 3 5 6 10l12 18c2 3 5 6 5 8zM387 450c-1 0-12 5-12 8s1 9 3 12 8 10 14 8 9-6 12-7 4-2 3-4l-12-9-8-8zM422 460c-2 0-8 6-8 9a24 24 0 002 9l3 5 6-7c2-2 7-4 7-7s-1-5-4-7l-6-2zM408 474l-6 6c-2 1-6 4-6 6s-2 15 0 15 12-3 15-8 3-9 2-12l-5-7zM390 489c1-3-1-6-3-7s-7-1-7 2v14c0 4-2 11 0 13s5 3 8 0 2-10 2-13v-9zM356 506c-4-1-8-5-12-4s-10 6-6 10 10 11 8 13l-11 9c-1 1 3 7 6 6l22-14c6-3 12-8 12-12s-2-9-8-9l-11 1zM359 501c-5-1-11-6-11-9s2-13 7-18 10-13 12-11 2 5 3 7 6 7 5 12 0 17-6 18a31 31 0 01-10 1zM351 467c-1 3-11 15-12 25-1 6-7 14-9 13s-28-23-36-37c-6-10-14-29-13-34s14-8 18-10 15-3 20-1 15 22 20 28l10 13 2 3z" class="cls-1"/>
  <path d="M340 523l-7 7c-3 3-8 8-14 7s-24-9-42-23-38-40-38-47 7-15 10-19 13-12 17-11 6 0 12 16 27 41 36 48l20 16c2 2 6 4 6 6zM296 535c-1 3-35-2-48-10-14-9-22-20-22-22s4-2 9-3 12-2 17 1 12 13 20 19 25 14 24 15zM230 520l-18-7c-4-2-8-3-7-4s3-4 8-5h6c1 0 1 5 3 7s9 8 8 9zM242 488l-18 8c-5 2-10 5-13 4s-12-11-12-14v-12c-1-3-7-7-5-9s7-1 12 0 7 6 11 9 8 2 11 0 5-4 7-1l6 10c2 2 2 3 1 5zM201 506c-2 0-6 1-12-3s-13-8-14-11 0-4 3-5 11-1 14 1 10 10 10 12 1 4-1 6zM194 477c-1 2-7 5-13 4s-11-8-13-12-1-7-2-9-6-9-4-10 11 0 15 3l6 7a12 12 0 016 7l4 7a16 16 0 011 3zM169 487c-2 0-13-4-18-8s-10-7-9-8 3-2 7-3 12-1 13 1l5 10c2 2 4 6 3 7a2 2 0 01-1 1zM94 457c-4 0-9-1-9 3s0 16-1 19-6 8-8 8-1 1 0 2c2 1 10 0 14-3s11-16 11-22-2-7-3-7a29 29 0 01-4 0zM135 465c-3 1-8-2-12-4s-5-7-4-9 4-4 8-3 8 7 9 9l2 5-3 2zM112 451c-2 0-6-4-6-5l1-7 3-1 3 9c1 2 2 4 1 5a2 2 0 01-2-1zM125 444c-3-1-6 0-7-2s-6-7-5-9 3-2 6-1 8-2 11 1 2 7 2 8 0 3-2 3h-5zM153 464l-7 1c-1 0-6-6-8-11a31 31 0 01-1-11c0-3-2-6 1-6s9 4 12 7a34 34 0 018 10c1 4 4 8 2 9a29 29 0 01-7 1zM119 427l-7-2v-8c1-2 2-4 4-2l6 7c1 1 3 4 2 5a17 17 0 01-5 0zM231 466l-22-5c-24-8-58-27-77-40s-20-17-19-18 8 2 12 2l27-1c3 0 10 1 13 3s9 6 9 7-9-2-14 0-7 5-3 7 19 1 22 0a21 21 0 0115-1c7 2 12 7 11 8s-8-1-12 0c-6 2-2 7 1 8s11 0 15 0 16-2 23 0 13 8 12 9h-15c-5 0-11 7-7 11s11 6 12 7-1 3-3 3zM364 208c1-1 16 6 16 16s0 24-29 40a140 140 0 01-130-2c-10-6-5-15-1-20s8-5 19-5c12 1 34 10 51 16s34 5 43 3 39-12 39-30c0-15-8-17-8-18z" class="cls-1"/>
  <path d="M309 205c-1 1 2 5 1 11s-6 16-12 21l-11 8c0 1 4 3 12 5s15 3 16 2 5-9 5-20c0-14-10-27-11-27zM399 227l3 11c0 7-9 19-31 28l-26 11 38-2c16-1 21-2 23-4s8-14 7-24-13-21-14-20zM415 271c-1-1 1-5 4-8 3-1 27-9 30-18s1-16 1-16 12 9 11 20c0 11-2 13-8 15s-36 8-38 7zM286 300c-13-11-25-16-38-19s-18-5-21-8-11-7-18-7-11 2-12 6l-1 12c-1 2-1 4-9 4s-14-5-19-12-8-9-14-8-11 9-10 14a13 13 0 006 9c1 1 2 1 2 3s-1 1-4 1-6-1-8 1-4 6-2 13 10 11 14 10l9-2c2 0 3 5 4 8s6 7 7 6-1-3-2-6a10 10 0 011-6s9 2 13-1c7-4 10-11 10-11a33 33 0 017 4c5 4 10 5 17 5h10c3 1 6 8 7 17s-6 13-10 14c-3 0-6-2-9-5s-5-8-5-12-2-4-3-3l-3 9 3 10c1 1-1 3-2 3s-7 1-10-1a16 16 0 01-9-14c0-7 4-12 2-12s-11 6-13 11c-2 3-2 9-3 10s-3 2-9 1-11 7-12 13 8 13 19 17 40 7 87-6 50-30 51-39-10-18-23-29zm-76-18c-5 0-8-3-8-6s3-5 6-5 9 3 9 7c0 3-3 4-7 4zM152 257c-4-1-12-9-13-16s5-11 7-19 42-98 43-103a8 8 0 018-6c3 0 11 7 20 10s23 9 23 15l-3 54v26c-1 4-8 10-14 9s-12-6-18-6-18 20-20 24-5 6-6 6-3-2-3-6 4-21 11-30 21-19 24-29 2-17 1-19-6-2-8 2-6 21-11 23-8-1-9 1l-16 54c-3 6-11 10-16 10z" class="cls-1"/>
  <path d="M252 209c-2-1-3-4-3-9s0-62 2-71 55-102 57-105 11-2 14 1l39 34c1 2 3 4 3 9l-5 162c0 2-1 2-2 2h-24c-4 0-9-5-9-9l1-17c0-4-11-17-12-21s0-73 0-76 3-5 4-5l9 30c2 4 3 5 4 4l1-4c0-2 3-37 2-39s-2-2-3-2-10 1-12-2l-7-14c-2-2-4-4-5-3s-4 2-3 5-4 124-4 126-4 7-11 6-9-3-9-5l2-72c0-2-2-3-3-2s-5 3-6 5l-16 68c-1 1-1 4-4 4zM388 192c-2 0-2 3-4 5s-6 3-9 1-4-4-5-10v-44c1-5 22-29 29-30s10 6 14 10 6 12 6 16l6 82a3 3 0 01-3 4c-1 0-11-8-11-12l-2-45c0-2-4-6-5-6l-3 36c-1 2-3 2-5 2s-5-6-6-8-1-1-2-1z" class="cls-1"/>
</svg>
